<svg xmlns="http://www.w3.org/2000/svg" width="110" height="110" version="1.0" viewBox="0 0 110 110"><circle cx="55" cy="54.98" r="55" fill="#FABC3D"/><path fill="#0484AB" d="M87 28.98v52c0 3.31-2.69 6-6 6H29c-3.31 0-6-2.69-6-6v-52c0-3.31 2.69-6 6-6h52c3.31 0 6 2.69 6 6z"/><path fill="#059BBF" d="M87 31.93v49.05c0 3.31-2.69 6-6 6H29c-3.31 0-6-2.69-6-6V67.24l11.21-7.21 17.01 3 15.53-10.35 8.96-15.91L87 31.93z"/><path fill="#21B2D1" d="M87 39.98v-2h-7v-4h-2v4h-5v2h5v6h-6v-3h-2v3h-1v2h1v6h-8v8h-6v-2h-2v2h-6v-1.001h-2v1.001h-6v-2h-2v2h-6v-1.001h-2v1.001h-2.22v2H30v6h-7v2h7v6h-7v2h7v6.999h2V79.98h6v7h2v-7h6v6.999h2V79.98h6v7h2v-7h6v7h2v-7h6v7h2v-7h6v7h2v-7h7v-2h-7v-6h7v-2h-7v-6h7v-2h-7v-6h7v-2h-7v-6h7v-2h-7v-6h7zm-23 16h6v6h-6v-6zm6 8v6h-6v-6h6zm-8 0v6h-6v-6h6zm-8 0v6h-6v-6h6zm-8 0v6h-6v-6h6zm-14 0h6v6h-6v-6zm0 14v-6h6v6h-6zm8 0v-6h6v6h-6zm8 0v-6h6v6h-6zm8 0v-6h6v6h-6zm8 0v-6h6v6h-6zm14 0h-6v-6h6v6zm0-8h-6v-6h6v6zm0-8h-6v-6h6v6zm0-8h-6v-6h6v6z"/><path fill="#FFF" d="M87 29.75l-10.657 4.561c-2.675-1.35-5.437 1.629-3.915 4.192l-5.916 10.529a2.98 2.98 0 0 0-3.412 3.681l-10.308 6.875A2.965 2.965 0 0 0 51 58.98c-1.12 0-2.084.621-2.6 1.53l-11.45-2.022c-.679-4.095-6.793-2.775-5.864 1.178L23 64.86v2.38l9.17-5.898c1.483 1.151 3.537.68 4.429-.891l11.45 2.02a2.993 2.993 0 0 0 2.95 2.509c1.892 0 3.398-1.766 2.898-3.735l10.31-6.871c2.853 2.14 6.397-1.663 4.042-4.358l5.754-10.218c2.462.871 4.714-1.556 3.781-3.917L87 31.93v-2.18z"/><path fill="#FFF" d="M59 47.98l-8 6-8-6v-18h16z"/><path fill="#F37A10" d="M51.035 34.133c.44 0 .789.349.789.789v.212a6.386 6.386 0 0 1 2.199.728c.288.167.546.455.546.91a1.01 1.01 0 0 1-1.031 1.016c-.182 0-.364-.045-.531-.136a5.77 5.77 0 0 0-1.259-.516v2.305c2.306.622 3.292 1.562 3.292 3.261s-1.304 2.791-3.215 3.003v.804c0 .44-.349.789-.789.789a.784.784 0 0 1-.789-.789v-.819a7.593 7.593 0 0 1-2.988-1.062 1.027 1.027 0 0 1-.516-.91c0-.592.455-1.032 1.046-1.032.197 0 .41.076.591.197.637.41 1.244.698 1.941.85v-2.412c-2.184-.592-3.261-1.426-3.261-3.23 0-1.668 1.274-2.791 3.185-2.988v-.182a.786.786 0 0 1 .79-.788zm-.713 4.914v-2.048c-.728.106-1.046.47-1.046.956 0 .47.212.788 1.046 1.092zm1.426 2.654v2.108c.713-.106 1.077-.44 1.077-.986 0-.5-.258-.833-1.077-1.122z"/></svg>